<?xml version="1.0" encoding="utf-8"?>
<!-- Generator: Adobe Illustrator 27.6.1, SVG Export Plug-In . SVG Version: 6.00 Build 0)  -->
<svg version="1.1" id="Layer_1" xmlns="http://www.w3.org/2000/svg" xmlns:xlink="http://www.w3.org/1999/xlink" x="0px" y="0px"
	 viewBox="0 0 31.9 32" style="enable-background:new 0 0 31.9 32;" xml:space="preserve">
<style type="text/css">
	.st0{fill:#FFFFFF;}
</style>
<rect width="32" height="32"/>
<g>
	<g>
		<path class="st0" d="M20.6,21.4c0.8-2.3,0.5-3.5-0.3-4.2c1.4-0.3,2.6-0.7,2.7-0.8c0.7-0.9,0-3.1-1.3-2.8c-0.4,0.1-1.4,0.5-2.5,1.1
			c0.3-0.5,0.5-1.1,0.6-1.7c0.7-0.2,1.3-1,1.3-1.9c0-0.1,0-0.2,0-0.4C21,10,20.5,9.4,20,9.1c-0.1-0.3-0.3-0.8-0.7-1.2
			c-0.2-0.3-0.6-0.7-1-1c-0.1-0.6-0.3-1.1-0.4-1.6c-0.1-0.3-0.2-0.5-0.3-0.7c-0.1-0.2-0.2-0.3-0.4-0.3c0,0,0,0,0,0
			c-0.3,0.1-0.5,0.3-0.7,0.7c-0.2,0.3-0.3,0.6-0.4,1c-0.2,0-0.4,0-0.6,0c-0.5,0-1.1,0.1-1.7,0.2c-0.6,0.1-1.1,0.3-1.5,0.5
			c-0.1-0.2-0.3-0.4-0.4-0.5c-0.3-0.3-0.5-0.5-0.8-0.5c0,0,0,0-0.1,0c-0.2,0-0.2,0.2-0.3,0.3c-0.2,0.4-0.2,1.2-0.2,2
			c-0.2,0.2-0.3,0.4-0.5,0.6c-0.7,1-0.8,2-0.8,2.7c0,0,0,0,0,0.1c-0.2,0.3-0.3,0.8-0.3,1.2c0,0,0,0,0,0c0,1.1,0.9,1.9,1.8,1.9
			c0,0,0,0,0,0c0.2,0,0.4-0.1,0.6-0.2c0.5,0.8,1.2,1.5,2,2c-2-0.1-4.4-0.1-4.7,0c-0.9,0.6-0.9,3,0.4,3.1c0.5,0,2-0.2,3.5-0.6
			c-0.3,0.5-0.6,1-0.8,1.5c-2.2-0.3-3.6-0.2-4.3,0.3l0,0C7.1,20.8,7,21,7,21.2c0,0.3,0.3,0.6,0.6,0.6c0.1,0,0.2,0,0.3-0.1l0,0
			c0.4-0.2,1.3-0.4,3.5-0.1c-0.1,1.2,0.3,2.5,1.6,3.7c-2.7-1.3-4.4-0.4-3.2,2.2c1.4,0.4,5.6-0.1,6-0.3c0.2-0.2-0.9-2.8-1.1-5.1
			c0.2,0,0.3,0,0.5,0c0.7,0,1.3-0.2,1.6-0.6c0.6-0.7,0.4-1.8,0.3-2.4c2.8,0.5,1.4,4.4,1.8,4.6c1.1,0.5,3.7,0.1,5-0.4
			C24.7,20.4,23.1,19.7,20.6,21.4z M10.4,10.6c-0.1,0-0.1,0-0.2,0c-0.1,0-0.3,0-0.4,0.1c0.1-0.5,0.2-1,0.6-1.6
			C10.3,9.6,10.3,10.2,10.4,10.6z M13.8,6.9c0.6-0.1,1.1-0.2,1.6-0.2c0.1,0,0.3,0,0.4,0c-0.1,0.3-0.2,0.6-0.3,0.8
			c-0.1,0-0.2,0-0.3,0c-0.8,0-1.6,0.2-2.2,0.6c-0.2-0.2-0.3-0.5-0.5-0.8c0,0,0,0,0,0C12.9,7.1,13.3,7,13.8,6.9z M15.9,20.7
			c-0.2,0.2-0.6,0.3-1.2,0.2c0.1-0.9,0.4-1.6,1.2-1.8C16,19.5,16.2,20.4,15.9,20.7z M18.5,14.6c-0.2,0-0.4,0-0.7,0l-0.5-1.3L17,14.6
			c-0.9,0.1-1.6,0.3-2.2,0.5l-0.8-1l0.1,1.3c-0.4,0.2-0.6,0.4-0.6,0.4c-0.7-0.7-1.2-1.9-1.5-2.4c0.3-0.2,0.6-0.4,1-0.6l0.8,0.9
			l-0.2-1.2c1-0.4,2-0.6,2.9-0.8l0.6,1l0.1-1.1c0.6-0.1,1.2-0.1,1.5-0.1C18.9,13.1,18.6,14.1,18.5,14.6z M18.6,8.1
			c0.1,0.1,0.1,0.1,0.2,0.2C19,8.6,19.1,8.8,19.2,9c-0.1,0-0.2,0.1-0.3,0.2c0,0,0,0,0,0C18.8,8.9,18.7,8.5,18.6,8.1z"/>
	</g>
</g>
</svg>
